<mxfile host="app.diagrams.net" modified="2022-01-02T17:22:18.295Z" agent="5.0 (Windows NT 10.0; Win64; x64) AppleWebKit/537.36 (KHTML, like Gecko) Chrome/96.0.4664.110 Safari/537.36 Edg/96.0.1054.62" etag="1K0tk1qCSKthOJB_HFCR" version="16.1.2" type="github">
  <diagram id="C5RBs43oDa-KdzZeNtuy" name="Page-1">
    <mxGraphModel dx="1038" dy="539" grid="1" gridSize="10" guides="1" tooltips="1" connect="1" arrows="1" fold="1" page="1" pageScale="1" pageWidth="827" pageHeight="1169" math="0" shadow="0">
      <root>
        <mxCell id="WIyWlLk6GJQsqaUBKTNV-0" />
        <mxCell id="WIyWlLk6GJQsqaUBKTNV-1" parent="WIyWlLk6GJQsqaUBKTNV-0" />
        <mxCell id="94t1wU5pPidi4otltJ9_-16" value="(1,1)" style="rounded=0;orthogonalLoop=1;jettySize=auto;html=1;exitX=1;exitY=1;exitDx=0;exitDy=0;entryX=0;entryY=0;entryDx=0;entryDy=0;endArrow=none;endFill=0;" edge="1" parent="WIyWlLk6GJQsqaUBKTNV-1">
          <mxGeometry relative="1" as="geometry">
            <mxPoint x="471" y="370" as="sourcePoint" />
            <mxPoint x="543.5" y="410" as="targetPoint" />
          </mxGeometry>
        </mxCell>
        <mxCell id="94t1wU5pPidi4otltJ9_-0" value="Trận đấu" style="rounded=0;whiteSpace=wrap;html=1;" vertex="1" parent="WIyWlLk6GJQsqaUBKTNV-1">
          <mxGeometry x="349" y="310" width="120" height="60" as="geometry" />
        </mxCell>
        <mxCell id="94t1wU5pPidi4otltJ9_-1" value="&amp;nbsp;Cầu thủ" style="rounded=0;whiteSpace=wrap;html=1;" vertex="1" parent="WIyWlLk6GJQsqaUBKTNV-1">
          <mxGeometry x="39" y="450" width="120" height="60" as="geometry" />
        </mxCell>
        <mxCell id="94t1wU5pPidi4otltJ9_-7" value="(1,1)" style="edgeStyle=orthogonalEdgeStyle;rounded=0;orthogonalLoop=1;jettySize=auto;html=1;exitX=1;exitY=0.5;exitDx=0;exitDy=0;entryX=0;entryY=0.5;entryDx=0;entryDy=0;align=right;endArrow=none;endFill=0;" edge="1" parent="WIyWlLk6GJQsqaUBKTNV-1" source="94t1wU5pPidi4otltJ9_-2" target="94t1wU5pPidi4otltJ9_-5">
          <mxGeometry relative="1" as="geometry">
            <mxPoint x="209" y="160" as="targetPoint" />
          </mxGeometry>
        </mxCell>
        <mxCell id="94t1wU5pPidi4otltJ9_-2" value="Đội bóng" style="rounded=0;whiteSpace=wrap;html=1;" vertex="1" parent="WIyWlLk6GJQsqaUBKTNV-1">
          <mxGeometry x="39" y="130" width="120" height="60" as="geometry" />
        </mxCell>
        <mxCell id="94t1wU5pPidi4otltJ9_-22" style="edgeStyle=none;rounded=0;orthogonalLoop=1;jettySize=auto;html=1;exitX=0.5;exitY=0;exitDx=0;exitDy=0;entryX=0.5;entryY=1;entryDx=0;entryDy=0;endArrow=none;endFill=0;" edge="1" parent="WIyWlLk6GJQsqaUBKTNV-1" source="94t1wU5pPidi4otltJ9_-3" target="94t1wU5pPidi4otltJ9_-20">
          <mxGeometry relative="1" as="geometry" />
        </mxCell>
        <mxCell id="94t1wU5pPidi4otltJ9_-3" value="Huấn luyện viên " style="rounded=0;whiteSpace=wrap;html=1;" vertex="1" parent="WIyWlLk6GJQsqaUBKTNV-1">
          <mxGeometry x="669" y="130" width="120" height="60" as="geometry" />
        </mxCell>
        <mxCell id="94t1wU5pPidi4otltJ9_-4" value="Sân vận động" style="rounded=0;whiteSpace=wrap;html=1;" vertex="1" parent="WIyWlLk6GJQsqaUBKTNV-1">
          <mxGeometry x="669" y="450" width="120" height="60" as="geometry" />
        </mxCell>
        <mxCell id="94t1wU5pPidi4otltJ9_-6" value="(1,1)" style="edgeStyle=orthogonalEdgeStyle;rounded=0;orthogonalLoop=1;jettySize=auto;html=1;exitX=1;exitY=0.5;exitDx=0;exitDy=0;entryX=0;entryY=0.5;entryDx=0;entryDy=0;endArrow=none;endFill=0;" edge="1" parent="WIyWlLk6GJQsqaUBKTNV-1" source="94t1wU5pPidi4otltJ9_-5" target="94t1wU5pPidi4otltJ9_-3">
          <mxGeometry relative="1" as="geometry" />
        </mxCell>
        <mxCell id="94t1wU5pPidi4otltJ9_-5" value="Có" style="rhombus;whiteSpace=wrap;html=1;" vertex="1" parent="WIyWlLk6GJQsqaUBKTNV-1">
          <mxGeometry x="379" y="140" width="90" height="40" as="geometry" />
        </mxCell>
        <mxCell id="94t1wU5pPidi4otltJ9_-9" value="(0,n)" style="edgeStyle=orthogonalEdgeStyle;rounded=0;orthogonalLoop=1;jettySize=auto;html=1;exitX=0.5;exitY=0;exitDx=0;exitDy=0;entryX=0.5;entryY=1;entryDx=0;entryDy=0;endArrow=none;endFill=0;align=right;verticalAlign=bottom;" edge="1" parent="WIyWlLk6GJQsqaUBKTNV-1" source="94t1wU5pPidi4otltJ9_-8" target="94t1wU5pPidi4otltJ9_-2">
          <mxGeometry relative="1" as="geometry" />
        </mxCell>
        <mxCell id="94t1wU5pPidi4otltJ9_-10" value="(1,1)" style="edgeStyle=orthogonalEdgeStyle;rounded=0;orthogonalLoop=1;jettySize=auto;html=1;exitX=0.5;exitY=1;exitDx=0;exitDy=0;entryX=0.5;entryY=0;entryDx=0;entryDy=0;endArrow=none;endFill=0;verticalAlign=top;align=right;" edge="1" parent="WIyWlLk6GJQsqaUBKTNV-1" source="94t1wU5pPidi4otltJ9_-8" target="94t1wU5pPidi4otltJ9_-1">
          <mxGeometry relative="1" as="geometry" />
        </mxCell>
        <mxCell id="94t1wU5pPidi4otltJ9_-8" value="Có" style="rhombus;whiteSpace=wrap;html=1;" vertex="1" parent="WIyWlLk6GJQsqaUBKTNV-1">
          <mxGeometry x="59" y="300" width="80" height="40" as="geometry" />
        </mxCell>
        <mxCell id="94t1wU5pPidi4otltJ9_-13" value="(0,n)" style="rounded=0;orthogonalLoop=1;jettySize=auto;html=1;exitX=0;exitY=0;exitDx=0;exitDy=0;entryX=1;entryY=1;entryDx=0;entryDy=0;endArrow=none;endFill=0;" edge="1" parent="WIyWlLk6GJQsqaUBKTNV-1" source="94t1wU5pPidi4otltJ9_-12" target="94t1wU5pPidi4otltJ9_-2">
          <mxGeometry relative="1" as="geometry" />
        </mxCell>
        <mxCell id="94t1wU5pPidi4otltJ9_-14" value="(2,2)" style="rounded=0;orthogonalLoop=1;jettySize=auto;html=1;exitX=1;exitY=1;exitDx=0;exitDy=0;entryX=0;entryY=0.5;entryDx=0;entryDy=0;endArrow=none;endFill=0;" edge="1" parent="WIyWlLk6GJQsqaUBKTNV-1" source="94t1wU5pPidi4otltJ9_-12" target="94t1wU5pPidi4otltJ9_-0">
          <mxGeometry relative="1" as="geometry" />
        </mxCell>
        <mxCell id="94t1wU5pPidi4otltJ9_-12" value="Có" style="rhombus;whiteSpace=wrap;html=1;" vertex="1" parent="WIyWlLk6GJQsqaUBKTNV-1">
          <mxGeometry x="200" y="240" width="90" height="40" as="geometry" />
        </mxCell>
        <mxCell id="94t1wU5pPidi4otltJ9_-17" value="(0,n)" style="rounded=0;orthogonalLoop=1;jettySize=auto;html=1;exitX=1;exitY=1;exitDx=0;exitDy=0;entryX=0;entryY=0.5;entryDx=0;entryDy=0;endArrow=none;endFill=0;" edge="1" parent="WIyWlLk6GJQsqaUBKTNV-1" source="94t1wU5pPidi4otltJ9_-15" target="94t1wU5pPidi4otltJ9_-4">
          <mxGeometry relative="1" as="geometry" />
        </mxCell>
        <mxCell id="94t1wU5pPidi4otltJ9_-15" value="Tại" style="rhombus;whiteSpace=wrap;html=1;" vertex="1" parent="WIyWlLk6GJQsqaUBKTNV-1">
          <mxGeometry x="519" y="400" width="90" height="40" as="geometry" />
        </mxCell>
        <mxCell id="94t1wU5pPidi4otltJ9_-20" value="Huấn luyện viên trưởng" style="ellipse;whiteSpace=wrap;html=1;" vertex="1" parent="WIyWlLk6GJQsqaUBKTNV-1">
          <mxGeometry x="689" y="60" width="80" height="40" as="geometry" />
        </mxCell>
        <mxCell id="94t1wU5pPidi4otltJ9_-25" style="edgeStyle=none;rounded=0;orthogonalLoop=1;jettySize=auto;html=1;exitX=0.5;exitY=0;exitDx=0;exitDy=0;entryX=0.5;entryY=1;entryDx=0;entryDy=0;endArrow=none;endFill=0;" edge="1" parent="WIyWlLk6GJQsqaUBKTNV-1" source="94t1wU5pPidi4otltJ9_-24" target="94t1wU5pPidi4otltJ9_-0">
          <mxGeometry relative="1" as="geometry" />
        </mxCell>
        <mxCell id="94t1wU5pPidi4otltJ9_-24" value="Thời gian" style="ellipse;whiteSpace=wrap;html=1;" vertex="1" parent="WIyWlLk6GJQsqaUBKTNV-1">
          <mxGeometry x="369" y="410" width="80" height="40" as="geometry" />
        </mxCell>
        <mxCell id="94t1wU5pPidi4otltJ9_-30" value="(0,2)" style="edgeStyle=none;rounded=0;orthogonalLoop=1;jettySize=auto;html=1;exitX=0;exitY=1;exitDx=0;exitDy=0;entryX=0.25;entryY=0;entryDx=0;entryDy=0;endArrow=none;endFill=0;verticalAlign=bottom;align=right;" edge="1" parent="WIyWlLk6GJQsqaUBKTNV-1" source="94t1wU5pPidi4otltJ9_-26" target="94t1wU5pPidi4otltJ9_-2">
          <mxGeometry relative="1" as="geometry" />
        </mxCell>
        <mxCell id="94t1wU5pPidi4otltJ9_-31" style="edgeStyle=none;rounded=0;orthogonalLoop=1;jettySize=auto;html=1;exitX=1;exitY=1;exitDx=0;exitDy=0;entryX=0.75;entryY=0;entryDx=0;entryDy=0;endArrow=none;endFill=0;" edge="1" parent="WIyWlLk6GJQsqaUBKTNV-1" source="94t1wU5pPidi4otltJ9_-26" target="94t1wU5pPidi4otltJ9_-2">
          <mxGeometry relative="1" as="geometry" />
        </mxCell>
        <mxCell id="94t1wU5pPidi4otltJ9_-32" value="(0,2)" style="edgeLabel;html=1;align=left;verticalAlign=middle;resizable=0;points=[];" vertex="1" connectable="0" parent="94t1wU5pPidi4otltJ9_-31">
          <mxGeometry x="0.4275" relative="1" as="geometry">
            <mxPoint as="offset" />
          </mxGeometry>
        </mxCell>
        <mxCell id="94t1wU5pPidi4otltJ9_-26" value="Gặp lại đối thủ" style="rhombus;whiteSpace=wrap;html=1;" vertex="1" parent="WIyWlLk6GJQsqaUBKTNV-1">
          <mxGeometry x="59" y="10" width="119" height="50" as="geometry" />
        </mxCell>
      </root>
    </mxGraphModel>
  </diagram>
</mxfile>
